<svg width="16" height="16" viewBox="0 0 16 16" fill="none" xmlns="http://www.w3.org/2000/svg">
<path d="M4.41304 11.3792C2.60344 9.4336 2.63544 6.384 4.51544 4.4904C5.25211 3.74485 6.21022 3.25766 7.24664 3.1016L7.19144 1.44C5.73636 1.61493 4.38355 2.27794 3.35384 3.3208C0.834643 5.8568 0.804243 9.952 3.25544 12.5456L1.86264 13.9472L6.27064 14.188L6.25864 9.5208L4.41304 11.3792ZM9.73064 1.812L9.74264 6.4792L11.5882 4.6216C13.3978 6.5688 13.3658 9.6184 11.4858 11.5104C10.7492 12.256 9.79106 12.7431 8.75464 12.8992L8.80984 14.56C10.2647 14.3842 11.6175 13.7217 12.6482 12.68C15.1666 10.1424 15.197 6.0472 12.7458 3.4552L14.1386 2.052L9.73064 1.812Z" fill="black"/>
</svg>
