<svg width="20" height="20" viewBox="0 0 20 20" fill="none" xmlns="http://www.w3.org/2000/svg">
<path d="M10 17.5C7.91667 17.5 6.14583 16.7708 4.6875 15.3125C3.22917 13.8542 2.5 12.0833 2.5 10C2.5 7.91667 3.22917 6.14583 4.6875 4.6875C6.14583 3.22917 7.91667 2.5 10 2.5C10.1944 2.5 10.3856 2.50694 10.5733 2.52083C10.7611 2.53472 10.945 2.55556 11.125 2.58333C10.5556 2.98611 10.1006 3.51056 9.76 4.15667C9.41944 4.80278 9.24944 5.50056 9.25 6.25C9.25 7.5 9.6875 8.5625 10.5625 9.4375C11.4375 10.3125 12.5 10.75 13.75 10.75C14.5139 10.75 15.2153 10.5797 15.8542 10.2392C16.4931 9.89861 17.0139 9.44389 17.4167 8.875C17.4444 9.05556 17.4653 9.23944 17.4792 9.42667C17.4931 9.61389 17.5 9.805 17.5 10C17.5 12.0833 16.7708 13.8542 15.3125 15.3125C13.8542 16.7708 12.0833 17.5 10 17.5Z" fill="black"/>
</svg>
