<svg width="24" height="24" viewBox="0 0 24 24" fill="none" xmlns="http://www.w3.org/2000/svg">
<path d="M20.0829 15.2L21.2849 15.921C21.359 15.9654 21.4204 16.0282 21.463 16.1034C21.5056 16.1786 21.528 16.2636 21.528 16.35C21.528 16.4364 21.5056 16.5214 21.463 16.5965C21.4204 16.6717 21.359 16.7346 21.2849 16.779L12.5149 22.041C12.3593 22.1344 12.1813 22.1838 11.9999 22.1838C11.8184 22.1838 11.6404 22.1344 11.4849 22.041L2.71485 16.779C2.6407 16.7346 2.57932 16.6717 2.5367 16.5965C2.49408 16.5214 2.47168 16.4364 2.47168 16.35C2.47168 16.2636 2.49408 16.1786 2.5367 16.1034C2.57932 16.0282 2.6407 15.9654 2.71485 15.921L3.91685 15.2L11.9999 20.05L20.0829 15.2ZM20.0829 10.5L21.2849 11.221C21.359 11.2654 21.4204 11.3282 21.463 11.4034C21.5056 11.4786 21.528 11.5636 21.528 11.65C21.528 11.7364 21.5056 11.8214 21.463 11.8965C21.4204 11.9717 21.359 12.0346 21.2849 12.079L11.9999 17.649L2.71485 12.079C2.6407 12.0346 2.57932 11.9717 2.5367 11.8965C2.49408 11.8214 2.47168 11.7364 2.47168 11.65C2.47168 11.5636 2.49408 11.4786 2.5367 11.4034C2.57932 11.3282 2.6407 11.2654 2.71485 11.221L3.91685 10.5L11.9999 15.35L20.0829 10.5ZM12.5139 1.30899L21.2849 6.57099C21.359 6.61538 21.4204 6.67823 21.463 6.75342C21.5056 6.82861 21.528 6.91356 21.528 6.99999C21.528 7.08641 21.5056 7.17136 21.463 7.24655C21.4204 7.32174 21.359 7.38459 21.2849 7.42899L11.9999 12.999L2.71485 7.42999C2.6407 7.38559 2.57932 7.32274 2.5367 7.24755C2.49408 7.17236 2.47168 7.08741 2.47168 7.00099C2.47168 6.91456 2.49408 6.82961 2.5367 6.75442C2.57932 6.67923 2.6407 6.61638 2.71485 6.57199L11.4849 1.30999C11.6404 1.21654 11.8184 1.16718 11.9999 1.16718C12.1813 1.16718 12.3593 1.21654 12.5149 1.30999M11.9999 3.33198L5.88685 6.99999L11.9999 10.668L18.1129 6.99999L11.9999 3.33198Z" fill="black"/>
</svg>
