<svg width="20" height="20" viewBox="0 0 20 20" fill="none" xmlns="http://www.w3.org/2000/svg">
<path d="M9.99984 14.175C12.2998 14.175 14.1748 12.3 14.1748 10C14.1748 7.7 12.2998 5.825 9.99984 5.825C7.69984 5.825 5.82484 7.7 5.82484 10C5.82484 12.3 7.69984 14.175 9.99984 14.175ZM9.99984 7.5C11.3832 7.5 12.5082 8.625 12.5082 10.0083C12.5082 11.3917 11.3832 12.5167 9.99984 12.5167C8.6165 12.5167 7.4915 11.3917 7.4915 10.0083C7.4915 8.625 8.6165 7.5 9.99984 7.5ZM10.8332 15.8333H9.1665V18.3333H10.8332V15.8333ZM10.8332 1.66666H9.1665V4.16666H10.8332V1.66666ZM1.6665 9.16666H4.1665V10.8333H1.6665V9.16666ZM15.8332 9.16666H18.3332V10.8333H15.8332V9.16666ZM3.5165 15.3L4.10817 15.8917L4.69984 16.4833L5.58317 15.6L6.4665 14.7167L5.87484 14.125L5.28317 13.5333L4.39984 14.4167L3.5165 15.3ZM16.4832 4.7L15.8915 4.10833L15.2998 3.51666L14.4165 4.4L13.5332 5.28333L14.1248 5.875L14.7165 6.46666L15.5998 5.58333L16.4832 4.7ZM6.4665 5.28333L5.58317 4.4L4.69984 3.51666L4.10817 4.10833L3.5165 4.7L4.39984 5.58333L5.28317 6.46666L5.87484 5.875L6.4665 5.28333ZM13.5332 14.7167L14.4165 15.6L15.2998 16.4833L15.8915 15.8917L16.4832 15.3L15.5998 14.4167L14.7165 13.5333L14.1248 14.125L13.5332 14.7167Z" fill="black"/>
</svg>
