<svg width="20" height="20" viewBox="0 0 20 20" fill="none" xmlns="http://www.w3.org/2000/svg">
<path d="M4.99984 5.83333V2.5H14.9998V5.83333H4.99984ZM14.9998 10.4167C15.2359 10.4167 15.434 10.3367 15.594 10.1767C15.754 10.0167 15.8337 9.81889 15.8332 9.58333C15.8326 9.34778 15.7526 9.15 15.5932 8.99C15.4337 8.83 15.2359 8.75 14.9998 8.75C14.7637 8.75 14.5659 8.83 14.4065 8.99C14.2471 9.15 14.1671 9.34778 14.1665 9.58333C14.1659 9.81889 14.2459 10.0169 14.4065 10.1775C14.5671 10.3381 14.7648 10.4178 14.9998 10.4167ZM6.6665 15.8333H13.3332V12.5H6.6665V15.8333ZM4.99984 17.5V14.1667H1.6665V6.66667H18.3332V14.1667H14.9998V17.5H4.99984Z" fill="black"/>
</svg>
