<svg width="20" height="20" viewBox="0 0 20 20" fill="none" xmlns="http://www.w3.org/2000/svg">
<path d="M10.0002 4.16666V1.66666L6.66683 4.99999L10.0002 8.33332V5.83332C12.7585 5.83332 15.0002 8.07499 15.0002 10.8333C15.0002 13.3083 13.1918 15.3583 10.8335 15.7583V17.4417C14.1252 17.0333 16.6668 14.2333 16.6668 10.8333C16.6668 7.14999 13.6835 4.16666 10.0002 4.16666ZM5.00016 10.8333C5.00016 9.45832 5.5585 8.20832 6.46683 7.29999L5.2835 6.11666C4.6646 6.73624 4.17384 7.47169 3.83926 8.28099C3.50467 9.09029 3.33281 9.95759 3.3335 10.8333C3.3335 14.2333 5.87516 17.0333 9.16683 17.4417V15.7583C6.8085 15.3583 5.00016 13.3083 5.00016 10.8333Z" fill="black"/>
</svg>
